<svg xmlns="http://www.w3.org/2000/svg" viewBox="0 0 1366 768"><defs><style>.cls-1{fill:#858585;}</style></defs><title>Asset 1</title><g id="Layer_2" data-name="Layer 2"><g id="Layer_1-2" data-name="Layer 1"><rect class="cls-1" width="1366" height="768"/><path d="M722.58,378.3l9,16.08-4.93-2.77L724.05,390l-1-1.17-.32.4,1.38.72,2.64,1.62c2.71,2.3,5.32,4.73,8.14,6.88,5.11,3.88,9.37,8.36,10.8,14.83a6.26,6.26,0,0,1-.86,3.67c-.6,1.2-1.07,2-.22,3.42,3.32,5.46,6.48,11,9.67,16.54A24.78,24.78,0,0,1,756.9,442c2,7,7,12.32,10.28,18.58,2.69,5.12,7.14,8.4,11.25,12.09a12.44,12.44,0,0,1,4.08,6.73,5.31,5.31,0,0,0,3.16,3.66c4.27,2.28,8.38,4.83,12.63,7.15a7.4,7.4,0,0,0,3.37.72,12.36,12.36,0,0,1,8.84,3.52c2.17,2.08,3.82,4.69,5.88,6.91a9.84,9.84,0,0,0,3.49,2.37A25.8,25.8,0,0,0,825,505a15,15,0,0,1,5.65,2.52,19.14,19.14,0,0,0,7.29,2.49c5.25.83,10.58,1.21,15.86,1.89a42.93,42.93,0,0,1,7.23,1.38,4.36,4.36,0,0,1,3.29,4.4q0,7.82,0,15.63a11.79,11.79,0,0,0,.27,2.72c.37,1.55,1.1,1.9,2.77,1.2a11.36,11.36,0,0,1,5.26-.79c3.5.32,7.05.62,9.61,3.79.89,1.1,2.67,1.65,4.15,2.07,3.65,1,7.35,1.49,10.58,4.11a15.64,15.64,0,0,0,10.75,3.16c3.94-.18,4,.17,4,4a28.31,28.31,0,0,0,0,3.8c.31,2.15-.62,2.48-2.56,2.48q-142.54-.08-285.08,0c-2,0-2.92-.37-3.2-2.63a23.73,23.73,0,0,0-4-10.83,56.06,56.06,0,0,1-7.66-18.6c-2-8.4-3.5-16.91-3.23-25.47.23-7.28-.9-14.25-2-21.33a109.23,109.23,0,0,1-.19-32c1.43-9.92,3.13-19.81,4.89-29.68,1-5.65,2.14-11.29,3.64-16.82a37.51,37.51,0,0,1,6-12.42,27.12,27.12,0,0,0,3.2-7.07c.74-2.14,1-4.43,3.26-5.71.3-.17.37-.88.42-1.35.3-2.93.44-5.87.86-8.77.35-2.43,1.13-4.78,1.53-7.2s.58-4.79.82-7.19a6.45,6.45,0,0,1,.67-2.84q.39,5.66.77,11.29l.36,0c0-4.46.11-8.92,0-13.37-.15-5-1.42-10.05-.22-15.05.2-.86,1.41-1.72,2.34-2.09a6.71,6.71,0,0,1,3.09,0c1.11.16,2.27.94,3.25.73,1.76-.38,3.81-.91,4.93-2.13.64-.69-.33-2.86-.57-4.36l-.85,0c-.17.77-.35,1.55-.53,2.33l-.57.6,0,.13v-.18l.57-.6c0,.35.07.89-.1,1a6.06,6.06,0,0,1-2.16.93c-.3,0-.71-.71-1.06-1.09l1.89-1,.07-.07-.12.08-1.46-1.79.06.05a21,21,0,0,0-1-2.5c-.27-.49-.83-1.14-1.24-1.12s-1.06.7-1.17,1.19c-.71,3.05-.79,3-3.54,1.61-4.63-2.31-6.18-6.67-7.83-11-.5-1.3-.81-2.68-1.3-4-1.16-3.07.24-4.94,3.43-4.54a5.92,5.92,0,0,0,1.57-.26,5,5,0,0,0-1.1-1.06,6.68,6.68,0,0,1-4.1-5.8,7.35,7.35,0,0,0-.86-2.05c-1-2.52-2-5.05-3-7.58-.07-.19,0-.5-.08-.62-2.21-2.37-2.31-5.55-3.32-8.39-.31-.86-1.33-1.47-1.58-2.33-1-3.57-1.94-7.19-2.81-10.81a10.57,10.57,0,0,1,0-2.51l.84.57.11-.19-1-.37c-1.27-1.11-1.27-1.11,1-2.9l-2.21.17v0c.5-2.11,1-4.22,1.54-6.3.11-.35.8-.54,1.21-.81l.54,2.67.84-.35-1.43-2.27a12.44,12.44,0,0,0,.35-3.23,39.34,39.34,0,0,0-1.31-4.56,12,12,0,0,1-.21-1.48c2.34.27,1.26-1.62,1.64-2.6.26-.7.56-1.38.84-2.06l-.07,0,3.17-1.51-.18-.37-3,1,.06,0c.11-2.69,2.28-3.36,4.19-4.29l0,0c2.84-.1,5.48-.5,7.34-3.12.7-1,2.81-.63,2.77-2.6a5.13,5.13,0,0,1,.29-1.77c.53-1.6,1.13-3.17,1.7-4.76.31-.86.57-1.76,1-2.59s.95-1.44,1.29-2.22c.71-1.64,4.09-5.24,5.33-4.71,2.86,1.26,3.88-1.63,6-1.92,4.18-.58,8.29-1.8,12.49-2.17a48.58,48.58,0,0,1,10,.59c.88.1,1.65,1.16,2.47,1.78l.1-.1-.14.09a6.2,6.2,0,0,1,1.68.11q5.18,1.83,10.32,3.77c.32.12.5.6.73.91l-.38,0,.42,0c.07.23.13.64.22.65,2.68.26,3.69,2.49,5.3,4.15s3.87,2.86,5.91,4.31c-1.86,1.65-3-.89-4.8-1.13a3.27,3.27,0,0,0,3.06,2.69,50,50,0,0,1,5.14,1.37,10.94,10.94,0,0,0,2.73.55c2.42,0,5.57,2.51,5.85,4.82h0V234h0c.62.5,1.31,1.1,1-.44-.18-1,0-1.57,1.16-1.24l-.06,0v1.9c.52-.81.7-1.38,1.08-1.58s.88,0,1.3.15c.11,0,.16.66.13.67-2.07.63-.66,2.23-.93,3.35a1.77,1.77,0,0,0-.06.17s0,.07,0,.1l0-.31c2.6.65,5.21,1.25,7.79,2,1.13.31,1.79,1.05.73,2.12a2.19,2.19,0,0,0-.23,3.32l-.31.22.26-.26c.55,2.74,1.55,5.51,1.48,8.24,0,1.42,1.62,3.61-.94,4.78-.35.16-.2,1.43-.29,2.18-2.72-.38-3.24,0-3.21,2.75a41.66,41.66,0,0,1-.1,6.2c-.82-2-1.59-4.06-2.49-6-.21-.47-1-1.13-1.27-1-.59.25-1.5,1-1.41,1.38.81,3.71-2.07,4-4.3,4.61-3,.83-6,1.36-9,2l-.1-.09.1.14c-6.61,1.42-13.32,1.37-20,1.49-1.33,0-2.7,1.1-4,1.85-1.41.83-2.71,1.85-4.06,2.78l0,.06.16-.74-1.06.73,0-.06-9.57,7.62-.16-.38-2.1.61c-.16,0-.41.16-.41.25-.18,2.95-2.66,1.75-4.13,2.13-.77.2-1.41-.28-2.11.82s-2.09,1.61-3.3,2.12c-2.43,1-3.07,3.45-4.29,5.37-.3.48.53,1.68.84,2.55l-.08.07.14-.07a13.54,13.54,0,0,0,.3,2,6.35,6.35,0,0,1,.08,3.82c-.53,1.77.29,3.94.55,5.94.14,1,.4,2.07.49,3.11a4.16,4.16,0,0,1-.38,1.3,4.53,4.53,0,0,1-1.21-.66c-.92-1-1.76-2-2.73-3.13,0,4.11,0,7.78,0,11.44-.74-.92-1.46-1.86-2.24-2.73a2.83,2.83,0,0,0-.95-.48c-.1.37-.38.8-.28,1.11.56,1.64,1.49,2.78,3.48,2.08.35-.09.81-.37,1-.24a27.11,27.11,0,0,1,2.18,1.77l.58-2.11.48,0c.11.61.23,1.23.33,1.84l-.12,0h.07c.28,0,.69-.06.81.09,1.19,1.5,2.26,3.24,4.37,1a9.49,9.49,0,0,1,1.37,1l4.38-2.36.25.43-1,1.56.42.43,1.11-1.09,0,.19,0-.14,2.14-2.78v0l.85,1,.48-1v0l.58.26h0c0,.14.06.27.09.42l.1.1-.09-.15c2-1,4-1.7,6.37-1.05,1.55.41,3.32-.11,5,0a10.53,10.53,0,0,1,2.56,1c2.6-1.6,3.69-5,5.42-7.89a19.15,19.15,0,0,1,1.47-1.92l-.05,0,1.1-3.1c.36,1.15.53,1.71.7,2.26l0-.07c-.6,2.11-1.29,4.21-1.76,6.35a6.43,6.43,0,0,0,.38,2.31,4.77,4.77,0,0,0,1.61-.41c1.53-1.1,3-2.32,4.49-3.43.24-.17.72,0,1.09,0l.09-.09-.14.1c1.28-.44,1.15.34,1,1.14l0-.06-1.09-.08-.11.09.15-.09,1.21,2h0L686.63,319l0,0c-2.11-.85-1.28,1.26-2,1.75l.34.48,3-2-.05,0,6-2.42,0,0c.59.29,1.26.93,1.74.81,3-.79,6-1.73,9-2.65.22-.07.36-.4.54-.61v0c-.35,2-1.66,3-3.5,3.6a25.89,25.89,0,0,0-3.52,1.79c-.29.14-.61.44-.87.39-1.44-.26-2.94-.8-3.42,1.35,0,.07-.49.1-.72,0-1.51-.47-2.91-.73-3.63,1.22,0,.13-.5.12-.75.19l-1.58.47a14.45,14.45,0,0,0,1.24,2.3,7,7,0,0,0,1.67,1.16l-.19.89c-2,.06-4.14.55-6,.08-2.43-.6-3,1-3.85,2.36a12.52,12.52,0,0,0-.8,1.92h0v.93h0c.64.58,2.36.22,1.73,2a2.88,2.88,0,0,0,.58.31c2.33,1.18,4.72,2.26,7,3.58.7.42.9,1.61,1.54,2.22,1.13,1.08,2.3,2.58,3.66,2.86a34.83,34.83,0,0,0,10.33,1c3.21-.34,6.05.71,9.08,1l0-.07c-.73.41-1.44.87-2.2,1.23-3,1.43-5,3.61-4.71,7.09a28.39,28.39,0,0,1-1.79,13.52l.72.2,4.1-13.81a34.21,34.21,0,0,1,6.08,12.91,14.1,14.1,0,0,0,1.54,3.18l.07,0v.54l-.07-.06h.53l0,.06c.08.17.15.35.22.52,0,.33,0,.66,0,1l.08.11-.07-.11c0-.33,0-.67,0-1l2.58,3-1-.07,0-.91-.09.06.08-.06c0,.31,0,.61,0,.92l1,.08c.48.73,1,1.45,1.43,2.18l-.35.22c-.23-.2-.45-.39-.66-.59l-.33-.51-.68-.19v-.1s.07.1.09.09l.63.16c.12.17.23.34.34.51l.67.6.1.25.16-.5,1.12,2.12a1.22,1.22,0,0,1,0,.17s.05,0,.07.06ZM715.9,248.92a.18.18,0,0,0,0,.06l.09.1Zm-78.11-34,0,0ZM715,385.44l.09-.09-.14.06S714.94,385.44,715,385.44Zm-1.27-.86.09-.09-.13.07A.05.05,0,0,0,713.69,384.58ZM712,375l-.08.08L712,375v.11S712,375,712,375ZM687.12,223.11l.57-.13,0,0-.52.08L687,223Zm-6-.34-.08-.09.11,0-.1-.08Zm-24.9,99.8-.1,0,.11,0Zm38.92-86.39.12-.08-.16,0S695.09,236.17,695.1,236.18Zm-16-4.58.1-.12-.08.08-.16-.08Zm23.25,1.69-.15,0h.16l-.18,1.59-1.88-.16-.06.57,1.74.38,1.39,1.54c.06-.91.08-1.35.11-1.8h0l-1.58.34c.08-.31.15-.61.21-.92a14.39,14.39,0,0,0,1-1.22c.09-.14,0-.42,0-.63Zm-19.73-10.77,2.91-.15-.09-.6c-.93.26-1.85.53-2.78.78Zm17.76,10.2,0,.05.74-1-5.39-1C696.6,233.1,697.69,233.56,700.39,232.72Zm-69.53,77.84a22.88,22.88,0,0,0-2.74-.84,1.25,1.25,0,0,0-1.08.5,9.38,9.38,0,0,0,3,11.16,27.33,27.33,0,0,0,4.11,2l.31-.6a29.63,29.63,0,0,1-2.7-1.82c-.92-.76-1.7-1.67-2.56-2.51-2.39-2.33-2.14-5.18.61-7C630.14,311.19,630.43,310.91,630.86,310.56Zm83.11-54c1.86-1.68,1.92-2.09.57-4.09C714.34,253.86,714.16,255.13,714,256.53Zm-101.91,2.09c-.27-.11-.53-.29-.61-.23a1.06,1.06,0,0,0-.39.58c0,.11.21.27.32.41ZM718.6,386.88l-.08.22,1.7.83.16-.4ZM621.68,235.64l-.42.18c.09.15.16.36.3.42s.29-.1.45-.16ZM620,237.33a1.84,1.84,0,0,0-.46-.32s-.23.17-.23.25a1.64,1.64,0,0,0,.18.44Zm57.1,92.25c0,.12-.16.25-.14.34s.19.14.29.21c0-.12.16-.24.14-.34S677.16,329.65,677.05,329.58Zm-51.33-16.05-.2-.34c-.1.06-.3.16-.29.19a2,2,0,0,0,.23.46Zm25.9-30.28c0-.09-.1-.25-.15-.25a.94.94,0,0,0-.32.13c.05.09.1.26.15.26A.7.7,0,0,0,651.62,283.25Zm-11.33,8-.18-.24a1.66,1.66,0,0,0-.12.31s.06.1.09.15Zm42.19,30.06-.14-.13-.08.28c.06,0,.14.05.18,0S682.47,321.35,682.48,321.29ZM629.33,305l-.27-.19a1.63,1.63,0,0,0-.11.31s.12.11.14.1A2.5,2.5,0,0,0,629.33,305Zm64.85-74.36s.09.08.13.08.09-.06.13-.09l-.21-.15Zm-15-10.55c.09.07.19.22.28.21a.35.35,0,0,0,.21-.26c0-.09-.14-.18-.22-.27Zm34.66,160.46.11-.09s-.07-.1-.11-.1-.07.06-.1.09Zm-29-156.31-.09-.13-.07.14Zm-45.79,99.06-.11.13.25.11c0-.05,0-.12,0-.16S639.12,323.35,639.07,323.32Zm46.35-6.13.14-.05,0-.15s-.12,0-.14.05S685.4,317.14,685.42,317.19Zm-.91-97.43-.09.25c.05,0,.13,0,.14-.06S684.54,219.85,684.51,219.76Z"/><path d="M680.37,294.94l.61-2.31-.4-.26L679,294.23s0,0,0,0c.38-1.19.76-2.37,1.19-3.73L676.17,292l-.18-.31,2.8-1.61a20.34,20.34,0,0,0-3.36-1.73c-2-.59-2.54-.07-2.57,2-.06,3.27-2.38,4.77-5.4,3.52-.5-.21-1-.33-1.56-.49l-.53.77,1.91.84-11.55,5.58-.1-.09.08.13c-.13-.06-.26-.11-.38-.18-1.36-.74-3.51-1.2-3.9-2.29-.79-2.21-.13-4.59,1.23-6.74,1.12-1.76,2.73-3.46,2.12-5.9l0,.05a3.89,3.89,0,0,0,4.42-2.48c.74-2,2.73-1.81,4.19-1.93,1.24-.1,2.12,0,3.28-.92s2.89-.63,4.4-.76c1.24-.12,2.5,0,3.74-.07,3.42-.19,6.89-.79,9.92,1.53l0,0c2,.59,4.17.88,4.8,3.39l0,0,.54,2v0c-.42,2.43-.29,5-2.41,6.89-.81.71-1.48,1.07-2.26,0s-1.43-1.15-2.32.1c-.56.78-1.7,1.15-2.58,1.71ZM669.5,284.56a3.88,3.88,0,0,0-1,.08c-1.78.91-3.57,1.8-5.28,2.84-.24.15-.2,1.08,0,1.54a1.29,1.29,0,0,0,1.17.43,58.82,58.82,0,0,0,5.52-2.57c.58-.32.89-1.11,1.33-1.69Zm-17.24,12.06-.4.53c.44.24.87.5,1.32.72,0,0,.16-.18.34-.38Zm7.43-6.72.3.59,1.43-.68-.25-.52Zm11.66-.41c.06,0,.13,0,.17,0s0-.1.06-.15h-.27A.94.94,0,0,1,671.35,289.49Z"/><path d="M695.65,278.79c1-1.64,1.86-3.51,3.2-4.86,1.06-1.05,2.77-1.46,4.18-2.16l.15,0H703c1.9-2.24,4.2-1,6.36-.64.35.07.67.92.77,1.45,0,.2-.61.57-1,.76-1.29.65-2.59,1.25-3.9,1.87l-.09.09.13-.07a8.92,8.92,0,0,0,2.34,1.15c1.51.25,3.1,0,4.58.37.68.16,1.16,1.15,1.73,1.76a10.37,10.37,0,0,1-1.76,1.14c-1.37.57-2.8,1-4,1.44l.63-1.78L705,278.14c.32,3.73.32,3.73-4.66,5.25V284l5.3-.3,0,.06c-1.21.31-2.41.68-3.64.88a18.32,18.32,0,0,1-2.82,0c3.16,1.89,6.37,1.37,9.67,1.18-1.75,1.9-5.23,2.16-8.51.62-2.44-1.15-5.22-4.41-4.65-7.74l1.58.32,0-.56Zm6.51.4.17.42.92-.3c-.07-.11-.15-.32-.2-.31A8.79,8.79,0,0,0,702.16,279.19Zm-4.26,3.87c.19-.21.39-.34.4-.48s-.18-.29-.28-.43c-.14.12-.36.22-.39.36S697.77,282.82,697.9,283.06Z"/><path d="M700.64,309.86c-.68,3.42-3.81,3.45-6.22,4.29A29.87,29.87,0,0,1,689,315l0,.07a8,8,0,0,1-.27-2.49c.44-2.13-.86-1.78-2.07-1.6a5.9,5.9,0,0,0-1.15.36c0-2.35-2-.34-2.66-1.24l0,0-1.91-.58,0,.07c1.11-1,2.2-2,3.36-2.95.16-.13.72.11,1,.31a5.82,5.82,0,0,0,5.77.48c2.09-.88,4.14-1.87,6.21-2.8a5,5,0,0,1,2-.78c.45,0,.9.73,1.33,1.16s.68.77,1,1.16v0l.37.54,0-.06-.09.09.17-.57v0l1.65-.86c-1.36,2,0,2.82,1.41,3.6h0l-1.06.94c-.79-1.66-1.73-.68-2.65-.15l0,0-.88.11-.08.1Zm-2.78,1.25-1.17.78.47.49c.23-.44.47-.89.69-1.34l0-.12Zm-6.5,2s0-.13-.08-.15-.1,0-.16.06,0,.13.08.14S691.31,313.11,691.36,313.09Z"/><path d="M712.58,318.58,710,320.17c-.32-2.15,1.87-5.27-2.08-6.16l-.18-.61c1.65-.44,3.32-.85,5-1.32a3.34,3.34,0,0,0,1.74-.83c.2-.26-.39-1.05-.53-1.63s-.31-1.38-.13-1.49c1.66-.93,2-2.08,1-3.82l1.81.91-8.11-9.87.65-.6,6.1,6.07,0-.05c4.92,2.31,4.74,7,4.94,11.29.06,1.17-.84,2.47-1.56,3.54-.15.23-1.57-.08-2.14-.51-1.29-1-1.94-.89-2.22.79-.23,1.32-.31,1.32-1.76,1.51-.21,0-.39.34-.58.52l.7.68ZM717.16,306l.06-.11-.11.07c.51.92,1,1.84,1.51,2.76l0,0C718.12,307.88,717.63,307,717.16,306Z"/><path d="M677,294.24l2,0s0,0,0,0a70.26,70.26,0,0,1-7.17,4.43c-1.64.77-3.63.79-5.47,1.15l-.22-.78c2-.66,4-1.26,5.89-2a11.41,11.41,0,0,0,2.1-1.42l.05.05-1.23.07-.15-.51,4.21-.93.07,0Zm-1.43,1.16.17-.07-.18.06,0-.1Z"/><path d="M688.7,335.75a3.36,3.36,0,0,1,1.22.1c1,.52,1.9,1.14,2.84,1.73-.17.18-.43.55-.51.51C691,337.52,688.73,338.49,688.7,335.75Z"/><path d="M714.84,232.83a13.54,13.54,0,0,1-1.76.76,13.06,13.06,0,0,1-2.08.33,1.54,1.54,0,0,1-.14-.52,13.14,13.14,0,0,1,2.17-1,6.23,6.23,0,0,1,1.62,0Z"/><path d="M699.76,328.71l-6.28.88-.11-.84,6.31-.54Z"/><path d="M690,324l2.14,1.74-.38.53-2.36-1.58Z"/><path d="M640.09,317.73l1-.33c0,.38.09.88-.11,1.1s-.71.17-1.09.24l.24-1,.1-.08Z"/><path d="M643.61,316.87l-1.52-2.66.88-.37.59,3.07Z"/><path d="M718.93,259.59c-.22-.65-.44-1.3-.67-1.95l.56-.17c.19.66.39,1.32.58,2Z"/><path d="M609.91,249.52c.12-.57.23-1.16.39-1.72,0-.05.37,0,.57,0l-.13,1.82Z"/><path d="M609.89,252.84l.76-2.34.84.47-1.65,1.82Z"/><path d="M644.91,320.42l.3-1.58.65.14-.42,1.55Z"/><path d="M642,291.61c.18.26.35.41.36.56a1.36,1.36,0,0,1-.2.55c-.12-.13-.32-.25-.35-.39S641.86,292,642,291.61Z"/><path d="M667,297.21l1.24-.2.07.45-1.24.19Z"/><path d="M686.83,296.1c-.08.11-.14.27-.22.29s-.23-.08-.35-.13l.28-.4Z"/><path d="M629.87,221.37l-.33.58c-.15-.12-.39-.22-.41-.35s.16-.35.25-.52Z"/><path d="M715.5,234.46l-1.67.76h0l1.71-.73Z"/><path d="M649.77,316.55l-.08.15c-.05,0-.12-.05-.13-.09s0-.1.07-.14Z"/><path d="M684.53,300.52l.65-.74.16.22-.76.47Z"/><path d="M638.73,325.24l-.39,1-.5-.59.94-.38Z"/><path d="M707.18,293.57l.29.25c-.08.06-.18.19-.24.17a1.18,1.18,0,0,1-.31-.24Z"/><path d="M705.16,314.24l1.44.36-.2.42-1.23-.79Z"/><path d="M660.41,207.93s-.06.11-.09.11l-.37,0s.06-.11.08-.11S660.29,207.92,660.41,207.93Z"/><path d="M701.44,309.75l.85-.05,0,.32-.75-.31S701.44,309.75,701.44,309.75Z"/><path d="M690,316.05l-1.15,1.31h0L690,316.1Z"/><path d="M695.55,324.59l.34.66-.18.06-.13-.69Z"/><path d="M636.73,327.78l0-.15s.12,0,.14.05,0,.09,0,.14Z"/><path d="M609.84,252.79l-.16.76-.17,0c.13-.22.26-.44.38-.67Z"/><path d="M694.06,225.07c.11.08.26.13.3.23s-.08.2-.13.3c-.11-.07-.26-.12-.31-.23S694,225.18,694.06,225.07Z"/><polygon points="653.13 286.66 653.27 286.73 653.14 286.81 653.13 286.66"/><path d="M706.83,229.77a1.91,1.91,0,0,1,.32.16s0,.16-.06.17a2,2,0,0,1-.35,0Z"/><path d="M709.38,264.3l-.2-.27c.1-.06.21-.19.29-.17s.15.17.22.27Z"/><polygon points="709.41 307.98 709.43 307.81 709.55 307.9 709.41 307.98"/><path d="M711.14,230.74c.06.07.14.12.14.16s-.08.09-.13.13Z"/><path d="M609.63,244.36c-.25.36-.51.72-.76,1.09h0c.26-.35.51-.71.76-1.07Z"/><path d="M667,275.32h-.84l0,.06h.9Z"/><path d="M643.56,316.91l.74.07a.9.9,0,0,1,0,.17l-.69-.28Z"/><path d="M712.57,318.59l-.17,1-.25-.07.43-.9Z"/><path d="M699.21,324.06l-.24.21a1.47,1.47,0,0,1-.14-.28s.1-.12.12-.11A2,2,0,0,1,699.21,324.06Z"/><path d="M609.76,242.88l.16-.07-.16.07Z"/><path d="M716.57,233.51l-.05,0Z"/><path d="M703.41,314.56c0-.06,0-.16,0-.16a.34.34,0,0,1,.2,0c0,.06,0,.15,0,.16A.67.67,0,0,1,703.41,314.56Z"/><path d="M693.89,316.72l.37-.18a4.11,4.11,0,0,1-.42.15Z"/><path d="M613.76,239.85c0-.29,0-.58,0-.86l-.06,0v.91Z"/><path d="M656.39,319.76h1.32v0h-1.33Z"/><polygon points="684.75 296.56 684.66 296.67 684.61 296.55 684.75 296.56"/><path d="M680.38,294.92l0,.43,0-.4Z"/><path d="M705.16,309l.3.11-.3-.1Z"/><polygon points="717.19 235.11 717.13 235.03 717.14 235.14 717.19 235.11"/><path d="M689,315l-.39.92v0l.43-.87Z"/><path d="M719.24,238.71l-.26,0,0,.17.19-.13Z"/><path d="M658.29,320h0Z"/><polygon points="705.49 229.64 705.35 229.62 705.43 229.69 705.49 229.64"/><path d="M695.72,276.15v.18l0-.14Z"/><polygon points="651.89 286.95 651.78 287.04 651.88 286.99 651.89 286.95"/><path d="M609.76,242.88c0,.49-.09,1-.13,1.47a.1.1,0,0,1,0,0c0-.5.09-1,.14-1.5Z"/><path d="M679.22,332v.92h0V332Z"/><polygon points="689.96 286.16 690.13 286.23 689.95 286.18 689.96 286.16"/><path d="M713.57,345.08l.74-.17,0,0-.75.16Z"/><path d="M609.14,246.58c-.09-.38-.18-.75-.28-1.13h0c.07.39.15.78.22,1.16Z"/><path d="M695.76,276.19l0,0Z"/><path d="M715.22,300.82l0-.06Z"/><path d="M684.58,300.47l.08.14-.12-.09S684.58,300.47,684.58,300.47Z"/><path d="M701.61,306.22h.49v0h-.5Z"/><path d="M674.52,292.46l-.16.06.07.13.16-.22Z"/><path d="M674.59,292.43l0,.09-.12,0Z"/><path d="M685.08,217.79l0,0Z"/><path d="M688.12,316l-.43-.49,0,.06.44.45Z"/><path d="M690,316.1l-.11-.13.1.08Z"/><path d="M688.56,316h-.44v0h.46Z"/><path d="M685.06,217.74l.08.07s0,0,0,0S685.06,217.74,685.06,217.74Z"/><path d="M688.8,317.36h0Z"/><path d="M651.54,288.77h0Z"/><polygon points="686.63 318.99 686.52 318.92 686.67 318.96 686.63 318.99"/><path d="M688,319.18l-.14.07.09-.11Z"/><path d="M651.58,288.78l-.16.08.11-.09Z"/><path d="M705.43,229.69l.06-.05Z"/><path d="M706.8,232.28l-.07,0Z"/><path d="M704.64,233.45c0,.17,0,.34,0,.51h0v-.53Z"/><path d="M716.52,233.46l-.43.35,0,0,.44-.34Z"/><path d="M715.55,234.5l.58-.65,0,0-.58.65Z"/><path d="M695.58,324.62l-.11.07.08-.09S695.58,324.62,695.58,324.62Z"/><polygon points="677.86 298.8 677.96 298.86 677.91 298.77 677.86 298.8"/><path d="M617.94,234.7l0,0Z"/><polygon points="632.11 327.52 632.12 327.39 632.06 327.48 632.11 327.52"/><path d="M632.06,327.48l.15-.05-.1.09Z"/><path d="M677.91,298.77v.17l0-.14S677.91,298.77,677.91,298.77Z"/><path d="M713.83,235.22l0,0Z"/><path d="M651.88,287l-.09-.15.1.1Z"/><polygon points="717.14 235.14 717.26 235.18 717.19 235.1 717.14 235.14"/><path d="M654.78,285.44l0,.06Z"/><path d="M709.87,343.7l-.29.44v.05l.32-.48Z"/><path d="M711,344.28l-.05,0Z"/><path d="M714.92,344.21l0,0Z"/><path d="M709.58,344.14l.08.08-.06,0S709.58,344.14,709.58,344.14Z"/><path d="M710.92,344.23l.05,0Z"/><path d="M714.89,344.17l-.61.71,0,0c.2-.23.41-.46.61-.7Z"/><path d="M719.2,238.78l-.05-.14.09.07Z"/><path d="M713.11,345.77c.15-.23.3-.46.46-.68l-.05,0-.45.66Z"/><path d="M716.81,370l.51.51,0-.06h-.53l.07.06V370Z"/><path d="M609.09,246.61l0,0Z"/><path d="M609.75,260.8l.11.13a.81.81,0,0,1-.1-.09S609.75,260.8,609.75,260.8Z"/><path d="M689.46,284.23l0,0Z"/><path d="M705.68,283.71l.12.06h-.15Z"/><path d="M709.91,343.71l-.15.09.1-.1Z"/><path d="M682.85,310.13v.16l0-.14Z"/></g></g></svg>